<svg xmlns="http://www.w3.org/2000/svg" width="96" height="96" viewBox="138 333 92 96" role="img" aria-labelledby="markTitle">
<title id="markTitle">Bestgate Engineering mark</title>
<path fill-rule="nonzero" fill="rgb(0%, 23.921204%, 65.490723%)" fill-opacity="1" d="M 176.785156 401.90625 L 170.703125 407.980469 L 176.785156 414.0625 L 182.867188 407.980469 Z M 176.785156 401.90625 "/>
<path fill-rule="nonzero" fill="rgb(0%, 23.921204%, 65.490723%)" fill-opacity="1" d="M 182.867188 353.261719 L 176.785156 347.179688 L 170.707031 353.261719 L 176.785156 359.339844 Z M 182.867188 353.261719 "/>
<path fill-rule="nonzero" fill="rgb(0%, 23.921204%, 65.490723%)" fill-opacity="1" d="M 179.828125 417.105469 L 185.90625 423.183594 L 191.984375 417.105469 L 185.90625 411.023438 Z M 179.828125 417.105469 "/>
<path fill-rule="nonzero" fill="rgb(82.745361%, 82.43103%, 82.50885%)" fill-opacity="1" d="M 190.085938 407.980469 L 195.027344 412.921875 L 199.96875 407.980469 L 195.027344 403.042969 Z M 190.085938 407.980469 "/>
<path fill-rule="nonzero" fill="rgb(0%, 23.921204%, 65.490723%)" fill-opacity="1" d="M 167.664062 392.78125 L 161.585938 398.863281 L 167.664062 404.941406 L 173.746094 398.863281 Z M 167.664062 392.78125 "/>
<path fill-rule="nonzero" fill="rgb(82.745361%, 82.43103%, 82.50885%)" fill-opacity="1" d="M 190.847656 398.863281 L 185.90625 393.921875 L 180.96875 398.863281 L 185.90625 403.804688 Z M 190.847656 398.863281 "/>
<path fill-rule="nonzero" fill="rgb(91.372681%, 91.215515%, 91.255188%)" fill-opacity="1" d="M 200.347656 398.863281 L 204.148438 402.660156 L 207.949219 398.863281 L 204.148438 395.0625 Z M 200.347656 398.863281 "/>
<path fill-rule="nonzero" fill="rgb(0%, 23.921204%, 65.490723%)" fill-opacity="1" d="M 158.542969 383.660156 L 152.460938 389.742188 L 158.542969 395.824219 L 164.625 389.742188 Z M 158.542969 383.660156 "/>
<path fill-rule="nonzero" fill="rgb(82.745361%, 82.43103%, 82.50885%)" fill-opacity="1" d="M 181.726562 389.742188 L 176.785156 384.800781 L 171.84375 389.742188 L 176.785156 394.683594 Z M 181.726562 389.742188 "/>
<path fill-rule="nonzero" fill="rgb(91.372681%, 91.215515%, 91.255188%)" fill-opacity="1" d="M 195.027344 393.542969 L 198.828125 389.742188 L 195.027344 385.941406 L 191.226562 389.742188 Z M 195.027344 393.542969 "/>
<path fill-rule="nonzero" fill="rgb(91.372681%, 91.215515%, 91.255188%)" fill-opacity="1" d="M 210.609375 389.742188 L 213.269531 392.402344 L 215.929688 389.742188 L 213.269531 387.082031 Z M 210.609375 389.742188 "/>
<path fill-rule="nonzero" fill="rgb(0%, 23.921204%, 65.490723%)" fill-opacity="1" d="M 191.984375 344.136719 L 185.90625 338.058594 L 179.828125 344.136719 L 185.90625 350.21875 Z M 191.984375 344.136719 "/>
<path fill-rule="nonzero" fill="rgb(82.745361%, 82.43103%, 82.50885%)" fill-opacity="1" d="M 190.085938 353.261719 L 195.027344 358.199219 L 199.96875 353.261719 L 195.027344 348.316406 Z M 190.085938 353.261719 "/>
<path fill-rule="nonzero" fill="rgb(0%, 23.921204%, 65.490723%)" fill-opacity="1" d="M 173.746094 362.378906 L 167.664062 356.300781 L 161.585938 362.378906 L 167.664062 368.460938 Z M 173.746094 362.378906 "/>
<path fill-rule="nonzero" fill="rgb(82.745361%, 82.43103%, 82.50885%)" fill-opacity="1" d="M 185.90625 357.441406 L 180.964844 362.378906 L 185.90625 367.320312 L 190.847656 362.378906 Z M 185.90625 357.441406 "/>
<path fill-rule="nonzero" fill="rgb(91.372681%, 91.215515%, 91.255188%)" fill-opacity="1" d="M 200.347656 362.378906 L 204.148438 366.179688 L 207.949219 362.378906 L 204.148438 358.578125 Z M 200.347656 362.378906 "/>
<path fill-rule="nonzero" fill="rgb(0%, 23.921204%, 65.490723%)" fill-opacity="1" d="M 164.625 371.503906 L 158.542969 365.417969 L 152.464844 371.503906 L 158.542969 377.582031 Z M 164.625 371.503906 "/>
<path fill-rule="nonzero" fill="rgb(82.745361%, 82.43103%, 82.50885%)" fill-opacity="1" d="M 181.726562 371.503906 L 176.785156 366.558594 L 171.84375 371.503906 L 176.785156 376.441406 Z M 181.726562 371.503906 "/>
<path fill-rule="nonzero" fill="rgb(91.372681%, 91.215515%, 91.255188%)" fill-opacity="1" d="M 198.828125 371.503906 L 195.027344 367.699219 L 191.226562 371.503906 L 195.027344 375.300781 Z M 198.828125 371.503906 "/>
<path fill-rule="nonzero" fill="rgb(91.372681%, 91.215515%, 91.255188%)" fill-opacity="1" d="M 210.609375 371.503906 L 213.269531 374.160156 L 215.929688 371.503906 L 213.269531 368.839844 Z M 210.609375 371.503906 "/>
<path fill-rule="nonzero" fill="rgb(0%, 23.921204%, 65.490723%)" fill-opacity="1" d="M 149.425781 374.542969 L 143.34375 380.621094 L 149.425781 386.703125 L 155.503906 380.621094 Z M 149.425781 374.542969 "/>
<path fill-rule="nonzero" fill="rgb(82.745361%, 82.43103%, 82.50885%)" fill-opacity="1" d="M 162.726562 380.621094 L 167.664062 385.5625 L 172.605469 380.621094 L 167.664062 375.679688 Z M 162.726562 380.621094 "/>
<path fill-rule="nonzero" fill="rgb(91.372681%, 91.215515%, 91.255188%)" fill-opacity="1" d="M 189.707031 380.621094 L 185.90625 376.820312 L 182.105469 380.621094 L 185.90625 384.421875 Z M 189.707031 380.621094 "/>
<path fill-rule="nonzero" fill="rgb(91.372681%, 91.215515%, 91.255188%)" fill-opacity="1" d="M 206.808594 380.621094 L 204.148438 377.960938 L 201.488281 380.621094 L 204.148438 383.28125 Z M 206.808594 380.621094 "/>
<path fill-rule="nonzero" fill="rgb(95.68634%, 95.608521%, 95.628357%)" fill-opacity="1" d="M 222.390625 379.101562 L 220.867188 380.621094 L 222.390625 382.140625 L 223.910156 380.621094 Z M 222.390625 379.101562 "/>
</svg>
