<?xml version="1.0" encoding="UTF-8"?>
<svg xmlns="http://www.w3.org/2000/svg" width="1064" height="210" viewBox="133 328 532 105" role="img" aria-labelledby="bestgateLogoTitle">
<title id="bestgateLogoTitle">Bestgate Engineering</title>
<path fill-rule="nonzero" fill="rgb(0%, 23.921204%, 65.490723%)" fill-opacity="1" d="M 176.785156 401.90625 L 170.703125 407.980469 L 176.785156 414.0625 L 182.867188 407.980469 Z M 176.785156 401.90625 "/>
<path fill-rule="nonzero" fill="rgb(0%, 23.921204%, 65.490723%)" fill-opacity="1" d="M 182.867188 353.261719 L 176.785156 347.179688 L 170.707031 353.261719 L 176.785156 359.339844 Z M 182.867188 353.261719 "/>
<path fill-rule="nonzero" fill="rgb(0%, 23.921204%, 65.490723%)" fill-opacity="1" d="M 179.828125 417.105469 L 185.90625 423.183594 L 191.984375 417.105469 L 185.90625 411.023438 Z M 179.828125 417.105469 "/>
<path fill-rule="nonzero" fill="rgb(82.745361%, 82.43103%, 82.50885%)" fill-opacity="1" d="M 190.085938 407.980469 L 195.027344 412.921875 L 199.96875 407.980469 L 195.027344 403.042969 Z M 190.085938 407.980469 "/>
<path fill-rule="nonzero" fill="rgb(0%, 23.921204%, 65.490723%)" fill-opacity="1" d="M 167.664062 392.78125 L 161.585938 398.863281 L 167.664062 404.941406 L 173.746094 398.863281 Z M 167.664062 392.78125 "/>
<path fill-rule="nonzero" fill="rgb(82.745361%, 82.43103%, 82.50885%)" fill-opacity="1" d="M 190.847656 398.863281 L 185.90625 393.921875 L 180.96875 398.863281 L 185.90625 403.804688 Z M 190.847656 398.863281 "/>
<path fill-rule="nonzero" fill="rgb(91.372681%, 91.215515%, 91.255188%)" fill-opacity="1" d="M 200.347656 398.863281 L 204.148438 402.660156 L 207.949219 398.863281 L 204.148438 395.0625 Z M 200.347656 398.863281 "/>
<path fill-rule="nonzero" fill="rgb(0%, 23.921204%, 65.490723%)" fill-opacity="1" d="M 158.542969 383.660156 L 152.460938 389.742188 L 158.542969 395.824219 L 164.625 389.742188 Z M 158.542969 383.660156 "/>
<path fill-rule="nonzero" fill="rgb(82.745361%, 82.43103%, 82.50885%)" fill-opacity="1" d="M 181.726562 389.742188 L 176.785156 384.800781 L 171.84375 389.742188 L 176.785156 394.683594 Z M 181.726562 389.742188 "/>
<path fill-rule="nonzero" fill="rgb(91.372681%, 91.215515%, 91.255188%)" fill-opacity="1" d="M 195.027344 393.542969 L 198.828125 389.742188 L 195.027344 385.941406 L 191.226562 389.742188 Z M 195.027344 393.542969 "/>
<path fill-rule="nonzero" fill="rgb(91.372681%, 91.215515%, 91.255188%)" fill-opacity="1" d="M 210.609375 389.742188 L 213.269531 392.402344 L 215.929688 389.742188 L 213.269531 387.082031 Z M 210.609375 389.742188 "/>
<path fill-rule="nonzero" fill="rgb(0%, 23.921204%, 65.490723%)" fill-opacity="1" d="M 191.984375 344.136719 L 185.90625 338.058594 L 179.828125 344.136719 L 185.90625 350.21875 Z M 191.984375 344.136719 "/>
<path fill-rule="nonzero" fill="rgb(82.745361%, 82.43103%, 82.50885%)" fill-opacity="1" d="M 190.085938 353.261719 L 195.027344 358.199219 L 199.96875 353.261719 L 195.027344 348.316406 Z M 190.085938 353.261719 "/>
<path fill-rule="nonzero" fill="rgb(0%, 23.921204%, 65.490723%)" fill-opacity="1" d="M 173.746094 362.378906 L 167.664062 356.300781 L 161.585938 362.378906 L 167.664062 368.460938 Z M 173.746094 362.378906 "/>
<path fill-rule="nonzero" fill="rgb(82.745361%, 82.43103%, 82.50885%)" fill-opacity="1" d="M 185.90625 357.441406 L 180.964844 362.378906 L 185.90625 367.320312 L 190.847656 362.378906 Z M 185.90625 357.441406 "/>
<path fill-rule="nonzero" fill="rgb(91.372681%, 91.215515%, 91.255188%)" fill-opacity="1" d="M 200.347656 362.378906 L 204.148438 366.179688 L 207.949219 362.378906 L 204.148438 358.578125 Z M 200.347656 362.378906 "/>
<path fill-rule="nonzero" fill="rgb(0%, 23.921204%, 65.490723%)" fill-opacity="1" d="M 164.625 371.503906 L 158.542969 365.417969 L 152.464844 371.503906 L 158.542969 377.582031 Z M 164.625 371.503906 "/>
<path fill-rule="nonzero" fill="rgb(82.745361%, 82.43103%, 82.50885%)" fill-opacity="1" d="M 181.726562 371.503906 L 176.785156 366.558594 L 171.84375 371.503906 L 176.785156 376.441406 Z M 181.726562 371.503906 "/>
<path fill-rule="nonzero" fill="rgb(91.372681%, 91.215515%, 91.255188%)" fill-opacity="1" d="M 198.828125 371.503906 L 195.027344 367.699219 L 191.226562 371.503906 L 195.027344 375.300781 Z M 198.828125 371.503906 "/>
<path fill-rule="nonzero" fill="rgb(91.372681%, 91.215515%, 91.255188%)" fill-opacity="1" d="M 210.609375 371.503906 L 213.269531 374.160156 L 215.929688 371.503906 L 213.269531 368.839844 Z M 210.609375 371.503906 "/>
<path fill-rule="nonzero" fill="rgb(0%, 23.921204%, 65.490723%)" fill-opacity="1" d="M 149.425781 374.542969 L 143.34375 380.621094 L 149.425781 386.703125 L 155.503906 380.621094 Z M 149.425781 374.542969 "/>
<path fill-rule="nonzero" fill="rgb(82.745361%, 82.43103%, 82.50885%)" fill-opacity="1" d="M 162.726562 380.621094 L 167.664062 385.5625 L 172.605469 380.621094 L 167.664062 375.679688 Z M 162.726562 380.621094 "/>
<path fill-rule="nonzero" fill="rgb(91.372681%, 91.215515%, 91.255188%)" fill-opacity="1" d="M 189.707031 380.621094 L 185.90625 376.820312 L 182.105469 380.621094 L 185.90625 384.421875 Z M 189.707031 380.621094 "/>
<path fill-rule="nonzero" fill="rgb(91.372681%, 91.215515%, 91.255188%)" fill-opacity="1" d="M 206.808594 380.621094 L 204.148438 377.960938 L 201.488281 380.621094 L 204.148438 383.28125 Z M 206.808594 380.621094 "/>
<path fill-rule="nonzero" fill="rgb(95.68634%, 95.608521%, 95.628357%)" fill-opacity="1" d="M 222.390625 379.101562 L 220.867188 380.621094 L 222.390625 382.140625 L 223.910156 380.621094 Z M 222.390625 379.101562 "/>
<path fill-rule="nonzero" fill="rgb(56.864929%, 56.079102%, 56.274414%)" fill-opacity="1" d="M 418.167969 368.359375 L 431.269531 368.359375 L 431.269531 370.902344 L 421.023438 370.902344 L 421.023438 378.773438 L 430.410156 378.773438 L 430.410156 381.320312 L 421.023438 381.320312 L 421.023438 389.878906 L 431.441406 389.878906 L 431.441406 392.421875 L 418.167969 392.421875 Z M 418.167969 368.359375 "/>
<path fill-rule="nonzero" fill="rgb(56.864929%, 56.079102%, 56.274414%)" fill-opacity="1" d="M 444.367188 376.675781 L 442.511719 373.207031 L 442.375 373.207031 L 442.71875 376.675781 L 442.71875 392.421875 L 440.035156 392.421875 L 440.035156 367.980469 L 441.546875 367.980469 L 453.066406 384.035156 L 454.851562 387.335938 L 455.023438 387.335938 L 454.644531 384.035156 L 454.644531 368.359375 L 457.328125 368.359375 L 457.328125 392.800781 L 455.816406 392.800781 Z M 444.367188 376.675781 "/>
<path fill-rule="nonzero" fill="rgb(56.864929%, 56.079102%, 56.274414%)" fill-opacity="1" d="M 474.722656 380.425781 L 482.800781 380.425781 L 482.800781 391.015625 C 482.4375 391.289062 481.996094 391.542969 481.480469 391.769531 C 480.960938 392 480.414062 392.195312 479.828125 392.355469 C 479.246094 392.515625 478.636719 392.636719 478.007812 392.714844 C 477.375 392.796875 476.761719 392.835938 476.167969 392.835938 C 474.632812 392.835938 473.222656 392.589844 471.9375 392.097656 C 470.65625 391.605469 469.542969 390.847656 468.605469 389.828125 C 467.664062 388.808594 466.929688 387.511719 466.402344 385.941406 C 465.875 384.375 465.613281 382.523438 465.613281 380.390625 C 465.613281 378.167969 465.933594 376.265625 466.574219 374.683594 C 467.214844 373.101562 468.054688 371.8125 469.085938 370.816406 C 470.117188 369.820312 471.273438 369.089844 472.558594 368.632812 C 473.839844 368.175781 475.125 367.945312 476.410156 367.945312 C 477.785156 367.945312 478.917969 368.019531 479.8125 368.167969 C 480.703125 368.316406 481.460938 368.519531 482.078125 368.769531 L 481.359375 371.316406 C 480.257812 370.765625 478.6875 370.488281 476.648438 370.488281 C 475.6875 370.488281 474.730469 370.65625 473.777344 370.988281 C 472.828125 371.320312 471.972656 371.875 471.214844 372.65625 C 470.460938 373.433594 469.839844 374.453125 469.359375 375.714844 C 468.878906 376.976562 468.636719 378.535156 468.636719 380.390625 C 468.636719 382.085938 468.832031 383.554688 469.21875 384.792969 C 469.609375 386.03125 470.152344 387.054688 470.847656 387.867188 C 471.546875 388.683594 472.386719 389.289062 473.367188 389.691406 C 474.351562 390.089844 475.425781 390.292969 476.589844 390.292969 C 478.050781 390.292969 479.296875 390.003906 480.328125 389.433594 L 480.328125 382.726562 L 474.722656 382.039062 Z M 474.722656 380.425781 "/>
<path fill-rule="nonzero" fill="rgb(56.864929%, 56.079102%, 56.274414%)" fill-opacity="1" d="M 491.742188 368.359375 L 494.59375 368.359375 L 494.59375 392.421875 L 491.742188 392.421875 Z M 491.742188 368.359375 "/>
<path fill-rule="nonzero" fill="rgb(56.864929%, 56.079102%, 56.274414%)" fill-opacity="1" d="M 508.859375 376.675781 L 507.003906 373.207031 L 506.867188 373.207031 L 507.210938 376.675781 L 507.210938 392.421875 L 504.53125 392.421875 L 504.53125 367.980469 L 506.042969 367.980469 L 517.558594 384.035156 L 519.347656 387.335938 L 519.519531 387.335938 L 519.140625 384.035156 L 519.140625 368.359375 L 521.824219 368.359375 L 521.824219 392.800781 L 520.308594 392.800781 Z M 508.859375 376.675781 "/>
<path fill-rule="nonzero" fill="rgb(56.864929%, 56.079102%, 56.274414%)" fill-opacity="1" d="M 531.105469 368.359375 L 544.203125 368.359375 L 544.203125 370.902344 L 533.957031 370.902344 L 533.957031 378.773438 L 543.34375 378.773438 L 543.34375 381.320312 L 533.957031 381.320312 L 533.957031 389.878906 L 544.375 389.878906 L 544.375 392.421875 L 531.105469 392.421875 Z M 531.105469 368.359375 "/>
<path fill-rule="nonzero" fill="rgb(56.864929%, 56.079102%, 56.274414%)" fill-opacity="1" d="M 552.96875 368.359375 L 566.066406 368.359375 L 566.066406 370.902344 L 555.824219 370.902344 L 555.824219 378.773438 L 565.207031 378.773438 L 565.207031 381.320312 L 555.824219 381.320312 L 555.824219 389.878906 L 566.238281 389.878906 L 566.238281 392.421875 L 552.96875 392.421875 Z M 552.96875 368.359375 "/>
<path fill-rule="nonzero" fill="rgb(56.864929%, 56.079102%, 56.274414%)" fill-opacity="1" d="M 581.023438 370.558594 L 580.09375 370.558594 C 579.773438 370.558594 579.464844 370.570312 579.167969 370.59375 C 578.867188 370.617188 578.585938 370.640625 578.324219 370.660156 C 578.058594 370.683594 577.847656 370.71875 577.6875 370.765625 L 577.6875 379.632812 L 580.371094 379.632812 C 581.953125 379.632812 583.257812 379.246094 584.289062 378.464844 C 585.320312 377.6875 585.835938 376.472656 585.835938 374.820312 C 585.835938 373.582031 585.410156 372.5625 584.5625 371.761719 C 583.714844 370.960938 582.535156 370.558594 581.023438 370.558594 M 574.835938 368.597656 C 575.707031 368.4375 576.707031 368.3125 577.84375 368.21875 C 578.976562 368.128906 580.011719 368.082031 580.953125 368.082031 C 582.007812 368.082031 583.011719 368.199219 583.960938 368.425781 C 584.914062 368.65625 585.75 369.035156 586.472656 369.5625 C 587.195312 370.089844 587.773438 370.777344 588.207031 371.625 C 588.640625 372.472656 588.863281 373.503906 588.863281 374.71875 C 588.863281 376.597656 588.34375 378.121094 587.316406 379.289062 C 586.28125 380.460938 584.976562 381.238281 583.394531 381.628906 L 585.042969 382.898438 L 591.027344 392.421875 L 587.691406 392.421875 L 581.054688 382.039062 L 577.6875 381.523438 L 577.6875 392.421875 L 574.835938 392.421875 Z M 574.835938 368.597656 "/>
<path fill-rule="nonzero" fill="rgb(56.864929%, 56.079102%, 56.274414%)" fill-opacity="1" d="M 599.378906 368.359375 L 602.234375 368.359375 L 602.234375 392.421875 L 599.378906 392.421875 Z M 599.378906 368.359375 "/>
<path fill-rule="nonzero" fill="rgb(56.864929%, 56.079102%, 56.274414%)" fill-opacity="1" d="M 616.5 376.675781 L 614.644531 373.207031 L 614.507812 373.207031 L 614.851562 376.675781 L 614.851562 392.421875 L 612.167969 392.421875 L 612.167969 367.980469 L 613.683594 367.980469 L 625.199219 384.035156 L 626.984375 387.335938 L 627.15625 387.335938 L 626.78125 384.035156 L 626.78125 368.359375 L 629.460938 368.359375 L 629.460938 392.800781 L 627.949219 392.800781 Z M 616.5 376.675781 "/>
<path fill-rule="nonzero" fill="rgb(56.864929%, 56.079102%, 56.274414%)" fill-opacity="1" d="M 646.855469 380.425781 L 654.9375 380.425781 L 654.9375 391.015625 C 654.570312 391.289062 654.128906 391.542969 653.613281 391.769531 C 653.097656 392 652.546875 392.195312 651.960938 392.355469 C 651.378906 392.515625 650.769531 392.636719 650.140625 392.714844 C 649.507812 392.796875 648.894531 392.835938 648.300781 392.835938 C 646.765625 392.835938 645.355469 392.589844 644.074219 392.097656 C 642.789062 391.605469 641.675781 390.847656 640.738281 389.828125 C 639.796875 388.808594 639.0625 387.511719 638.539062 385.941406 C 638.007812 384.375 637.746094 382.523438 637.746094 380.390625 C 637.746094 378.167969 638.066406 376.265625 638.710938 374.683594 C 639.351562 373.101562 640.1875 371.8125 641.21875 370.816406 C 642.25 369.820312 643.40625 369.089844 644.691406 368.632812 C 645.972656 368.175781 647.257812 367.945312 648.542969 367.945312 C 649.917969 367.945312 651.050781 368.019531 651.945312 368.167969 C 652.839844 368.316406 653.59375 368.519531 654.214844 368.769531 L 653.492188 371.316406 C 652.390625 370.765625 650.824219 370.488281 648.78125 370.488281 C 647.820312 370.488281 646.863281 370.65625 645.910156 370.988281 C 644.960938 371.320312 644.105469 371.875 643.351562 372.65625 C 642.59375 373.433594 641.976562 374.453125 641.496094 375.714844 C 641.011719 376.976562 640.769531 378.535156 640.769531 380.390625 C 640.769531 382.085938 640.964844 383.554688 641.355469 384.792969 C 641.742188 386.03125 642.285156 387.054688 642.980469 387.867188 C 643.679688 388.683594 644.519531 389.289062 645.503906 389.691406 C 646.484375 390.089844 647.558594 390.292969 648.722656 390.292969 C 650.1875 390.292969 651.429688 390.003906 652.460938 389.433594 L 652.460938 382.726562 L 646.855469 382.039062 Z M 646.855469 380.425781 "/>
<path fill-rule="nonzero" fill="rgb(0%, 23.921204%, 65.490723%)" fill-opacity="1" d="M 207.542969 388.554688 C 208.113281 388.554688 208.671875 388.484375 209.210938 388.347656 C 209.746094 388.214844 210.222656 388.003906 210.636719 387.71875 C 211.050781 387.4375 211.382812 387.078125 211.632812 386.648438 C 211.886719 386.214844 212.011719 385.707031 212.011719 385.113281 C 212.011719 384.367188 211.863281 383.777344 211.566406 383.347656 C 211.265625 382.914062 210.878906 382.582031 210.394531 382.34375 C 209.914062 382.105469 209.375 381.949219 208.78125 381.882812 C 208.183594 381.816406 207.589844 381.78125 206.992188 381.78125 L 204.480469 381.78125 L 204.480469 388.347656 C 204.597656 388.394531 204.78125 388.429688 205.03125 388.453125 C 205.285156 388.472656 205.554688 388.492188 205.839844 388.503906 C 206.125 388.515625 206.425781 388.527344 206.734375 388.535156 C 207.042969 388.546875 207.3125 388.554688 207.542969 388.554688 M 205.996094 378.203125 C 206.316406 378.203125 206.6875 378.191406 207.113281 378.171875 C 207.535156 378.148438 207.886719 378.113281 208.160156 378.070312 C 209.03125 377.796875 209.78125 377.386719 210.414062 376.84375 C 211.042969 376.300781 211.359375 375.585938 211.359375 374.699219 C 211.359375 374.109375 211.242188 373.621094 211.015625 373.238281 C 210.785156 372.851562 210.480469 372.546875 210.105469 372.320312 C 209.726562 372.09375 209.296875 371.933594 208.8125 371.84375 C 208.332031 371.75 207.828125 371.707031 207.300781 371.707031 C 206.703125 371.707031 206.15625 371.71875 205.652344 371.742188 C 205.148438 371.761719 204.757812 371.796875 204.480469 371.84375 L 204.480469 378.203125 Z M 216.136719 373.699219 C 216.136719 374.296875 216.0625 374.890625 215.914062 375.488281 C 215.765625 376.085938 215.519531 376.628906 215.175781 377.121094 C 214.832031 377.613281 214.382812 378.050781 213.835938 378.429688 C 213.285156 378.804688 212.617188 379.085938 211.839844 379.269531 L 211.839844 379.476562 C 212.527344 379.589844 213.179688 379.785156 213.800781 380.0625 C 214.417969 380.335938 214.957031 380.714844 215.414062 381.195312 C 215.875 381.675781 216.234375 382.261719 216.5 382.949219 C 216.761719 383.636719 216.894531 384.449219 216.894531 385.390625 C 216.894531 386.628906 216.628906 387.699219 216.105469 388.605469 C 215.574219 389.511719 214.871094 390.25 213.988281 390.824219 C 213.105469 391.394531 212.101562 391.820312 210.980469 392.09375 C 209.855469 392.371094 208.699219 392.507812 207.507812 392.507812 L 206.011719 392.507812 C 205.40625 392.507812 204.75 392.488281 204.050781 392.457031 C 203.351562 392.421875 202.644531 392.371094 201.921875 392.300781 C 201.199219 392.230469 200.539062 392.128906 199.945312 391.992188 L 199.945312 368.269531 C 200.378906 368.199219 200.878906 368.128906 201.4375 368.0625 C 202 367.992188 202.601562 367.9375 203.246094 367.890625 C 203.886719 367.84375 204.546875 367.808594 205.222656 367.785156 C 205.898438 367.765625 206.566406 367.753906 207.234375 367.753906 C 208.355469 367.753906 209.449219 367.839844 210.515625 368.011719 C 211.582031 368.183594 212.53125 368.484375 213.371094 368.921875 C 214.207031 369.355469 214.878906 369.964844 215.382812 370.742188 C 215.886719 371.523438 216.136719 372.507812 216.136719 373.699219 "/>
<path fill-rule="nonzero" fill="rgb(0%, 23.921204%, 65.490723%)" fill-opacity="1" d="M 228.757812 368.097656 L 243.023438 368.097656 L 243.023438 372.289062 L 233.464844 372.289062 L 233.464844 377.894531 L 242.164062 377.894531 L 242.164062 382.089844 L 233.464844 382.089844 L 233.464844 387.96875 L 243.195312 387.96875 L 243.195312 392.164062 L 228.757812 392.164062 Z M 228.757812 368.097656 "/>
<path fill-rule="nonzero" fill="rgb(0%, 23.921204%, 65.490723%)" fill-opacity="1" d="M 265.578125 385.699219 C 265.578125 384.964844 265.308594 384.371094 264.769531 383.910156 C 264.230469 383.453125 263.554688 383.035156 262.742188 382.65625 C 261.929688 382.277344 261.046875 381.890625 260.09375 381.488281 C 259.140625 381.085938 258.261719 380.59375 257.445312 380.007812 C 256.632812 379.425781 255.957031 378.699219 255.417969 377.828125 C 254.878906 376.957031 254.609375 375.84375 254.609375 374.492188 C 254.609375 373.320312 254.804688 372.308594 255.195312 371.449219 C 255.585938 370.589844 256.140625 369.871094 256.863281 369.300781 C 257.585938 368.726562 258.4375 368.300781 259.425781 368.027344 C 260.410156 367.753906 261.507812 367.613281 262.722656 367.613281 C 264.121094 367.613281 265.441406 367.734375 266.679688 367.976562 C 267.917969 368.214844 268.933594 368.566406 269.738281 369.023438 L 268.261719 372.976562 C 267.753906 372.65625 267 372.367188 265.992188 372.101562 C 264.980469 371.839844 263.894531 371.707031 262.722656 371.707031 C 261.625 371.707031 260.78125 371.925781 260.195312 372.359375 C 259.613281 372.796875 259.320312 373.378906 259.320312 374.113281 C 259.320312 374.800781 259.589844 375.375 260.128906 375.832031 C 260.667969 376.289062 261.34375 376.714844 262.15625 377.105469 C 262.972656 377.496094 263.851562 377.894531 264.804688 378.308594 C 265.753906 378.71875 266.636719 379.21875 267.453125 379.804688 C 268.265625 380.386719 268.941406 381.109375 269.480469 381.96875 C 270.019531 382.828125 270.289062 383.902344 270.289062 385.183594 C 270.289062 386.46875 270.074219 387.574219 269.652344 388.5 C 269.226562 389.429688 268.632812 390.203125 267.863281 390.824219 C 267.097656 391.441406 266.167969 391.898438 265.078125 392.199219 C 263.992188 392.496094 262.792969 392.644531 261.488281 392.644531 C 259.765625 392.644531 258.253906 392.484375 256.949219 392.164062 C 255.640625 391.84375 254.679688 391.523438 254.058594 391.199219 L 255.574219 387.179688 C 255.824219 387.316406 256.152344 387.464844 256.554688 387.625 C 256.953125 387.785156 257.40625 387.933594 257.910156 388.070312 C 258.414062 388.210938 258.949219 388.324219 259.511719 388.414062 C 260.070312 388.507812 260.648438 388.554688 261.246094 388.554688 C 262.644531 388.554688 263.714844 388.320312 264.460938 387.847656 C 265.207031 387.378906 265.578125 386.664062 265.578125 385.699219 "/>
<path fill-rule="nonzero" fill="rgb(0%, 23.921204%, 65.490723%)" fill-opacity="1" d="M 298.996094 372.289062 L 291.984375 372.289062 L 291.984375 392.164062 L 287.273438 392.164062 L 287.273438 372.289062 L 280.226562 372.289062 L 280.226562 368.097656 L 298.996094 368.097656 Z M 298.996094 372.289062 "/>
<path fill-rule="nonzero" fill="rgb(0%, 23.921204%, 65.490723%)" fill-opacity="1" d="M 317.082031 379.613281 L 326.058594 379.613281 L 326.058594 390.34375 C 325.09375 391.144531 323.941406 391.726562 322.601562 392.09375 C 321.261719 392.460938 319.9375 392.644531 318.628906 392.644531 C 317.09375 392.644531 315.667969 392.402344 314.351562 391.921875 C 313.03125 391.441406 311.890625 390.691406 310.929688 389.671875 C 309.964844 388.652344 309.210938 387.351562 308.660156 385.769531 C 308.109375 384.1875 307.835938 382.308594 307.835938 380.128906 C 307.835938 377.859375 308.160156 375.929688 308.8125 374.335938 C 309.46875 372.742188 310.328125 371.449219 311.394531 370.453125 C 312.460938 369.453125 313.65625 368.730469 314.984375 368.285156 C 316.316406 367.839844 317.667969 367.613281 319.042969 367.613281 C 320.417969 367.613281 321.628906 367.71875 322.671875 367.925781 C 323.714844 368.128906 324.542969 368.347656 325.164062 368.578125 L 324.199219 372.53125 C 323.628906 372.300781 322.984375 372.125 322.273438 372 C 321.5625 371.871094 320.660156 371.808594 319.558594 371.808594 C 318.574219 371.808594 317.667969 371.957031 316.84375 372.257812 C 316.015625 372.554688 315.300781 373.042969 314.691406 373.71875 C 314.085938 374.394531 313.617188 375.261719 313.285156 376.3125 C 312.949219 377.367188 312.785156 378.652344 312.785156 380.164062 C 312.785156 381.609375 312.945312 382.851562 313.265625 383.894531 C 313.585938 384.9375 314.035156 385.796875 314.605469 386.472656 C 315.179688 387.148438 315.851562 387.648438 316.617188 387.96875 C 317.386719 388.289062 318.207031 388.449219 319.078125 388.449219 C 319.671875 388.449219 320.257812 388.375 320.832031 388.226562 C 321.402344 388.078125 321.886719 387.855469 322.273438 387.554688 L 322.273438 383.019531 L 317.082031 382.46875 Z M 317.082031 379.613281 "/>
<path fill-rule="nonzero" fill="rgb(0%, 23.921204%, 65.490723%)" fill-opacity="1" d="M 343.695312 383.050781 L 348.851562 383.050781 L 347.0625 377.6875 L 346.339844 373.90625 L 346.171875 373.90625 L 345.449219 377.722656 Z M 349.882812 386.835938 L 342.492188 386.835938 L 340.667969 392.164062 L 335.957031 392.164062 L 344.621094 367.925781 L 348.09375 367.925781 L 356.757812 392.164062 L 351.808594 392.164062 Z M 349.882812 386.835938 "/>
<path fill-rule="nonzero" fill="rgb(0%, 23.921204%, 65.490723%)" fill-opacity="1" d="M 381.722656 372.289062 L 374.707031 372.289062 L 374.707031 392.164062 L 369.996094 392.164062 L 369.996094 372.289062 L 362.949219 372.289062 L 362.949219 368.097656 L 381.722656 368.097656 Z M 381.722656 372.289062 "/>
<path fill-rule="nonzero" fill="rgb(0%, 23.921204%, 65.490723%)" fill-opacity="1" d="M 392.65625 368.097656 L 406.921875 368.097656 L 406.921875 372.289062 L 397.363281 372.289062 L 397.363281 377.894531 L 406.0625 377.894531 L 406.0625 382.089844 L 397.363281 382.089844 L 397.363281 387.96875 L 407.09375 387.96875 L 407.09375 392.164062 L 392.65625 392.164062 Z M 392.65625 368.097656 "/>
</svg>
